<svg width="1024" height="1024" viewBox="0 0 1024 1024" fill="none" xmlns="http://www.w3.org/2000/svg">
    <rect x="0" y="0" width="100%" height="100%" fill="#00FF00"/>
    <g fill="#000000">
        <path
                d="M 101.66588,703.75023 V 600.00002 h 49.66676 q 8.58335,0 14.75003,6.25002 6.25001,6.25001 6.25001,14.91669 v 26.25005 q 0,8.66669 -6.16668,14.83337 -6.16667,6.16668 -14.83336,6.16668 h -35.50007 v 35.3334 q 0,2.91667 -2.08334,5.00001 -2,2 -4.91667,2 -3.00001,0 -5.08335,-2 -2.08333,-2.08334 -2.08333,-5.00001 z m 14.16669,-49.33343 h 35.50007 q 2.83334,0 4.91668,-2.00001 2.08334,-2.08333 2.08334,-5.00001 v -26.25005 q 0,-2.91667 -2.08334,-4.91667 -2.08334,-2.08334 -4.91668,-2.08334 h -35.50007 z"/>

        <path
                d="m 185.41604,701.00022 28.33339,-95.75019 q 1.66667,-5.25001 7.00001,-5.25001 5.16668,0 6.50002,4.41668 l 27.91672,97.25019 q 0.33333,1.08334 0.33333,2.08334 0,2.91667 -2,5.00001 -2.00001,2 -4.58334,2 -5.50001,0 -7.00002,-5.08334 l -5.66668,-19.00004 h -31.91673 l -6.16668,20.33338 q -0.25,1.33333 -2.08333,2.58334 -1.83334,1.16666 -4.00001,1.16666 -3.08334,0 -5.08334,-2.08333 -2.00001,-2.08334 -2.00001,-5.08335 0,-1.25 0.41667,-2.58334 z m 35.16674,-68.58347 -12.00003,40.08342 h 23.58338 z"/>

        <path
                d="m 284.74957,600.00002 h 36.41674 q 6.66668,0 12.58336,5.66668 6.00001,5.58335 6.00001,13.58336 0,3.00001 -2.16667,5.08334 -2.08334,2.08334 -4.66668,2.08334 -3.58334,0 -4.91668,-1.58333 -1.33333,-1.66667 -2.58333,-6.08335 -1.16667,-4.41668 -5.33335,-4.41668 h -34.5834 q -2.50001,0 -2.50001,1.58334 v 15.58337 l 53.50011,40.33341 q 3.75001,2.41667 3.33334,6.75001 l -0.0833,16.4167 q 0,6.25002 -4.58335,11.00002 -4.5,4.75001 -10.08335,4.75001 h -37.75007 q -7.50002,0 -13.08336,-5.66667 -5.50001,-5.75002 -5.50001,-12.58336 0,-7.83335 7.33334,-7.83335 2.83334,0 4.83335,2.08334 2,2 2,4.75001 0,2.25 1.5,3.75 1.58334,1.50001 3.91668,1.50001 h 34.8334 q 2.25001,0 2.41667,-3.00001 V 680.83352 L 271.99954,641.0001 q -3.66667,-4.75 -3.08334,-8.08334 l -0.0833,-16.83337 q 0,-6.50001 4.66668,-11.25002 4.66667,-4.83335 11.25002,-4.83335 z"/>

        <path
                d="m 368.08306,600.00002 h 36.41674 q 6.66668,0 12.58336,5.66668 6.00001,5.58335 6.00001,13.58336 0,3.00001 -2.16667,5.08334 -2.08334,2.08334 -4.66667,2.08334 -3.58334,0 -4.91668,-1.58333 -1.33334,-1.66667 -2.58334,-6.08335 -1.16667,-4.41668 -5.33334,-4.41668 h -34.5834 q -2.50001,0 -2.50001,1.58334 v 15.58337 l 53.50011,40.33341 q 3.75,2.41667 3.33334,6.75001 l -0.0833,16.4167 q 0,6.25002 -4.58334,11.00002 -4.50001,4.75001 -10.08335,4.75001 H 370.6664 q -7.50001,0 -13.08336,-5.66667 -5.50001,-5.75002 -5.50001,-12.58336 0,-7.83335 7.33335,-7.83335 2.83334,0 4.83334,2.08334 2.00001,2 2.00001,4.75001 0,2.25 1.5,3.75 1.58334,1.50001 3.91667,1.50001 h 34.83341 q 2.25,0 2.41667,-3.00001 V 680.83352 L 355.33304,641.0001 q -3.66668,-4.75 -3.08334,-8.08334 l -0.0833,-16.83337 q 0,-6.50001 4.66667,-11.25002 4.66668,-4.83335 11.25002,-4.83335 z"/>

        <path
                d="m 452.66656,686.83353 q 10.83336,-68.33347 12.83336,-70.41681 2.08334,-2.08334 5.00001,-2.08334 2.83334,0 4.91668,2.08334 2.08334,2.08334 11.75002,71.08348 l 4.50001,-80.50016 q 0,-2.83334 2.08334,-4.91668 2.08334,-2.08334 4.91667,-2.08334 2.91668,0 5.00001,2.08334 2.16667,2 2.16667,4.91668 l -8.66668,98.00019 q 0,5.75001 -5.25001,5.75001 h -6.50001 q -3.83334,0 -5.25001,-4.16667 l -9.83336,-54.16678 -10.66668,54.16678 q -1.66667,4.16667 -5.25001,4.16667 h -7.75002 q -5.00001,0 -5.00001,-5.58334 l -6.66668,-98.16686 q 0,-2.83334 2,-4.91668 2.08334,-2.08334 5.00001,-2.08334 2.91668,0 4.91668,2.08334 2.08334,2 2.08334,4.91668 z"/>

        <path
                d="m 570.33346,610.25004 15.4167,31.41673 q 3.25,6.41668 3.25,13.9167 0,7.33335 -3.25,13.83336 l -15.4167,31.08339 q -4.91668,10.25002 -16.6667,10.25002 -5.58334,0 -10.08335,-2.91667 -4.41668,-2.91667 -6.66668,-7.33335 L 521.4167,669.41683 q -3.08334,-6.08335 -3.08334,-13.83336 0,-7.75002 3.08334,-13.9167 l 15.50003,-31.41673 q 5.25001,-10.25002 16.75003,-10.25002 11.66669,0 16.6667,10.25002 z m -21.33338,7.00002 -14.50002,29.50006 q -2.00001,4.41667 -2.00001,8.66668 0,4.58334 2.00001,8.75002 l 14.91669,29.83339 q 1.16667,2.75001 4.25001,2.75001 2.66667,0 4.08334,-2.75001 l 15.00003,-29.83339 q 2.08334,-4.41668 2.08334,-8.75002 0,-4.58334 -2.08334,-8.66668 l -14.66669,-29.50006 q -1.41667,-3.25001 -4.41668,-3.25001 -3.00001,0 -4.66668,3.25001 z"/>

        <path
                d="M 601.66685,703.75023 V 600.00002 h 49.5001 q 8.58335,0 14.75003,6.25002 6.25001,6.25001 6.25001,14.91669 v 8.00002 q 0,8.75002 -6.16668,15.00003 -6.16667,6.16668 -14.83336,6.16668 h -8.91668 l 28.66672,49.16676 q 1.33334,2.16667 1.33334,4.33334 0,2.83334 -2.16667,4.91668 -2.16668,2 -4.91668,2 -4.16668,0 -6.33335,-3.75 L 625.9169,650.33346 h -10.08335 v 53.41677 q 0,2.91667 -2.16667,5.00001 -2.08334,2 -5.00001,2 -2.91668,0 -5.00001,-2 -2.00001,-2.08334 -2.00001,-5.00001 z m 14.00003,-67.4168 h 35.50007 q 2.91667,0 4.91668,-2.00001 2.08334,-2.08333 2.08334,-5.00001 v -8.16668 q 0,-2.91667 -2.08334,-4.91667 -2.00001,-2.08334 -4.91668,-2.08334 h -35.50007 z"/>

        <path
                d="m 692.16703,600.00002 h 27.66672 q 5.41668,0.0833 10.50002,3.50001 5.16668,3.41667 7.58335,8.25002 l 13.83336,28.00005 q 3.91668,7.58335 3.91668,15.83337 0,7.66668 -4.16668,15.75003 l -13.91669,27.66672 q -2.66668,5.33334 -7.66669,8.58335 -5.00001,3.16667 -11.16668,3.16667 h -26.75006 q -2.91667,0 -5.00001,-2.08333 -2,-2.08334 -2,-4.91668 0,-2.91667 2,-5.00001 2.08334,-2.16667 5.00001,-2.16667 h 7.33335 v -82.41683 h -7.16668 q -2.91667,0 -5.00001,-2.08334 -2,-2.16667 -2,-5.08334 0,-2.83334 2,-4.91668 2.08334,-2.08334 5.00001,-2.08334 z m 21.16671,14.1667 v 82.5835 h 4.91667 q 4.66668,0 7.00002,-4.58335 l 13.83336,-27.50005 q 2.58334,-5.41668 2.58334,-9.08335 0,-4.58335 -2.08334,-8.66669 l -14.33336,-28.50005 q -2.25001,-4.25001 -7.33335,-4.25001 z"/>

        <path
                d="m 775.33386,600.00002 h 56.66678 q 2.75,0 4.83334,2.08334 2.16667,2.08334 2.16667,4.91668 0,2.91667 -2.08334,5.08334 -2.08333,2.08334 -4.91667,2.08334 h -21.16671 v 82.5835 h 21.16671 q 2.91667,0 4.91667,2.08333 2.08334,2.00001 2.08334,4.91668 0,2.91667 -2.08334,5.00001 -2.08333,2 -4.91667,2 h -56.66678 q -2.91667,0 -5.00001,-2 -2.00001,-2.08334 -2.00001,-5.00001 0,-2.91667 2.00001,-4.91668 2.08334,-2.08333 5.00001,-2.08333 h 21.50004 v -82.5835 h -21.50004 q -2.91667,0 -5.00001,-2.08334 -2.00001,-2.08334 -2.00001,-4.91668 0,-3 2.00001,-5.08334 2.08334,-2.08334 5.00001,-2.08334 z"/>

        <path
                d="m 903.66744,610.25004 15.4167,31.41673 q 3.25001,6.41668 3.25001,13.9167 0,7.33335 -3.25001,13.83336 l -15.4167,31.08339 q -4.91667,10.25002 -16.6667,10.25002 -5.58334,0 -10.08335,-2.91667 -4.41667,-2.91667 -6.66668,-7.33335 l -15.50003,-31.08339 q -3.08334,-6.08335 -3.08334,-13.83336 0,-7.75002 3.08334,-13.9167 l 15.50003,-31.41673 q 5.25001,-10.25002 16.75003,-10.25002 11.66669,0 16.6667,10.25002 z m -21.33337,7.00002 -14.50003,29.50006 q -2,4.41667 -2,8.66668 0,4.58334 2,8.75002 l 14.9167,29.83339 q 1.16667,2.75001 4.25,2.75001 2.66668,0 4.08335,-2.75001 l 15.00003,-29.83339 q 2.08333,-4.41668 2.08333,-8.75002 0,-4.58334 -2.08333,-8.66668 l -14.6667,-29.50006 q -1.41667,-3.25001 -4.41668,-3.25001 -3,0 -4.66667,3.25001 z"/>
    </g>

    <!-- <a target="_blank" href="https://icons8.com/icon/12324/lock">Lock</a> icon by <a target="_blank" href="https://icons8.com">Icons8</a> -->
    <g>
        <path fill="#424242"
            d="m 512,282.66667 c -36.66667,0 -66.66667,30 -66.66667,66.66666 V 376 H 472 v -26.66667 c 0,-22 18,-40 40,-40 22,0 40,18 40,40 V 376 h 26.66667 v -26.66667 c 0,-36.66666 -30,-66.66666 -66.66667,-66.66666 z"/>

        <path fill="#fb8c00"
                d="M 592,549.33333 H 432 c -14.66667,0 -26.66667,-12 -26.66667,-26.66666 v -120 C 405.33333,388 417.33333,376 432,376 h 160 c 14.66667,0 26.66667,12 26.66667,26.66667 v 120 c 0,14.66666 -12,26.66666 -26.66667,26.66666 z"/>

        <path fill="#c76e00"
                d="m 512,442.66667 a 20,20 0 1 0 0,40 20,20 0 1 0 0,-40 z"/>
    </g>
</svg>